<?xml version="1.0" encoding="UTF-8"?><!DOCTYPE svg PUBLIC "-//W3C//DTD SVG 1.0//EN" "http://www.w3.org/TR/2001/REC-SVG-20010904/DTD/svg10.dtd" []><svg xmlns="http://www.w3.org/2000/svg" xmlns:xlink="http://www.w3.org/1999/xlink" height="100.1" preserveAspectRatio="xMidYMid meet" version="1.0" viewBox="36.1 77.9 191.0 100.1" width="191.0" zoomAndPan="magnify"><g id="change1_1"><path d="M226.94,118.02c-4.7-2.48-9.66-4.1-14.88-4.86c-3.15-0.46-6.75-0.39-9.87-0.18c-9.75,0.66-19.67,2.87-29.14,5.25 c0,0-0.01,0-0.01,0c-0.07,0.01-0.13-0.04-0.14-0.11c-1.22-8.67-2.33-16.38-4.01-25.98c-1.72-9.81-10.63-14.27-19.84-13.33 c-8.14,0.83-16.6,4.59-23.7,8.67c-10.19,5.86-21.81,13.35-34.15,8.54c-0.05-0.02-0.1-0.05-0.14-0.09c-0.06-0.06-0.13-0.1-0.21-0.13 c-0.03-0.01-0.05-0.04-0.05-0.07c0.01-0.03,0.04-0.05,0.07-0.04c11.29,1.48,20.84-4.01,30.22-9.47c0.01-0.01,0.02-0.02,0.03-0.04 c0.01-0.03-0.01-0.07-0.05-0.08c-3.41-0.88-6.84-1.71-10.28-2.5c-5.97-1.37-12.38-2.11-18.17,0.37c-4.07,1.75-6.64,5.55-7.54,9.78 c-0.71,3.37-1.31,8.71-1.75,13.08c-1,9.89-1.97,19.78-2.92,29.68c-0.01,0.08,0.03,0.13,0.11,0.15c1.22,0.35,2.73,0.7,4.53,1.06 c8.86,1.76,17.92,2.5,26.81,1.88c8.48-0.59,16.79-2.12,24.93-4.57c0.34-0.1,1.04-0.38,1.32-0.54c10.51-5.94,21.61-10.43,33.3-13.49 c14.74-3.85,30.78-6.02,45.98-4c1.25,0.17,2.48,0.43,3.67,0.79c0.02,0,0.04,0.02,0.03,0.05c0,0.02-0.02,0.04-0.05,0.03 c-20.2-0.61-40.46,2.62-59.4,9.64c-15.54,5.76-28.66,14.94-41.91,24.17c-9.87,6.87-21.32,13.71-32.47,18.63 c-1.54,0.68-1.59,0.59-0.14-0.28c8.41-5.05,16.79-10.65,25.13-16.8c0.05-0.03,0.04-0.05-0.02-0.05c-5,0.41-10,0.36-14.99-0.16 c-6.77-0.7-14.38-2.6-19.9-6.8c-0.17-0.13-0.26-0.33-0.24-0.54l2.27-23.99c0.01-0.09-0.03-0.15-0.13-0.15 c-5.15-0.46-9.51-2.09-14.23-3.51c-4.98-1.5-10.61-2.51-15.74-1.07c-7.14,2-11.13,8.08-12.51,15.09c-0.48,2.46-0.71,4.64-0.67,6.54 c0.33,16.25,10.02,31.58,25.75,36.96c7.12,2.44,15.31,1.94,22.67,0.69c2.09-0.36,4.06-0.86,5.94-1.52 c6.53-2.29,11.92-4.16,16.18-5.62c17.1-5.85,34.44-10.88,52.03-15.09c6.27-1.5,11.81-3.04,16.62-4.63 c6.6-2.18,12.75-5.33,18.4-9.39c10.84-7.79,21.14-15.81,33.26-21.88C227.02,118.1,227.02,118.06,226.94,118.02z M138.06,100.28 c-0.15,2.12-1.86,3.72-3.82,3.58c-1.96-0.14-3.43-1.96-3.28-4.08c0.15-2.12,1.86-3.72,3.82-3.58 C136.73,96.33,138.2,98.16,138.06,100.28z M149.15,103.84c-1.98,0.08-3.66-1.57-3.74-3.69c-0.09-2.12,1.45-3.9,3.44-3.98 c1.98-0.08,3.66,1.57,3.74,3.69C152.67,101.98,151.13,103.76,149.15,103.84z"/><path d="M79.62,145.43c2.89,1.17,5.83,2.05,8.83,2.63c9.7,1.87,19.66,1.73,29.38,0.14c0.23-0.04,0.64-0.2,0.82-0.34 c3.01-2.34,6.07-4.63,9.17-6.85c0.12-0.09,0.11-0.12-0.04-0.09c-0.5,0.09-1.21,0.23-2.14,0.43c-9.75,2.12-19.67,2.59-29.78,1.41 c-4.76-0.56-10.72-1.82-15.51-4.27c-0.01-0.01-0.02-0.01-0.03-0.01c-0.05-0.01-0.09,0.03-0.1,0.08l-0.64,6.82 C79.59,145.41,79.6,145.43,79.62,145.43z"/></g></svg>